<svg width="215" height="110" viewBox="0 0 215 110" fill="none" xmlns="http://www.w3.org/2000/svg">
<g clip-path="url(#clip0_1223_3923)">
<path d="M131.209 20.271C131.072 19.4158 130.341 18.7855 129.477 18.7855H113.017H109.684H101.992C100.815 18.7855 100.079 17.5115 100.665 16.4888L106.175 6.94085C106.766 5.91817 108.238 5.91817 108.829 6.94085C108.829 6.94085 112.572 13.4428 113.951 15.8541C114.264 16.4051 114.851 16.7401 115.481 16.7401H128.987C129.688 16.7401 130.16 16.0348 129.904 15.378C126.276 5.95343 116.874 -0.605849 106.03 0.0421445C94.917 0.70777 85.5939 9.17136 83.8086 20.1608C83.3854 22.7704 83.4119 25.3095 83.7909 27.7295C83.9276 28.5847 84.6593 29.2151 85.5233 29.2151H101.983H104.518H113.008C114.185 29.2151 114.921 30.489 114.335 31.5117L108.825 41.0597C108.234 42.0824 106.762 42.0824 106.171 41.0597C106.171 41.0597 102.424 34.5577 101.049 32.1465C100.736 31.5955 100.149 31.2604 99.5191 31.2604H86.0126C85.3117 31.2604 84.8401 31.9657 85.0958 32.6226C88.728 42.0603 98.1438 48.624 109.005 47.9584C120.114 47.2795 129.424 38.8071 131.196 27.8177C131.615 25.2125 131.588 22.6866 131.209 20.2754V20.271Z" fill="white"/>
</g>
<path d="M31.504 88.832H30.192L29.904 89.152H34.8C34.7787 89.1733 34.7573 89.1947 34.736 89.216C34.7147 89.2373 34.6827 89.2693 34.64 89.312H27.088C26.9813 89.4187 26.864 89.5253 26.736 89.632C26.6293 89.7387 26.512 89.8453 26.384 89.952H28.72L28.304 90.272H32.656L32.4 90.432H30.512C30.4907 90.4533 30.448 90.4747 30.384 90.496C30.3413 90.5173 30.2987 90.5493 30.256 90.592H28.112L27.216 91.072H28.464C28.1867 91.2 27.9093 91.3173 27.632 91.424C27.3547 91.5093 27.0667 91.6053 26.768 91.712H25.616C24.8907 91.9253 24.1013 92.0853 23.248 92.192H23.408C23.0667 92.2347 22.7147 92.2667 22.352 92.288C21.9893 92.3093 21.6267 92.32 21.264 92.32C20.8587 92.32 20.4533 92.3093 20.048 92.288C19.664 92.2667 19.2907 92.2347 18.928 92.192H18.8C17.8827 92.0853 17.0613 91.9253 16.336 91.712H17.488C17.168 91.6053 16.8693 91.5093 16.592 91.424C16.3147 91.3173 16.0373 91.2 15.76 91.072H14.512C14.3627 90.9867 14.2133 90.912 14.064 90.848C13.9147 90.7627 13.7653 90.6773 13.616 90.592H15.792L15.536 90.432H17.424C17.4027 90.3893 17.3707 90.3573 17.328 90.336C17.2853 90.3147 17.2427 90.2933 17.2 90.272H12.848C12.7627 90.2293 12.688 90.176 12.624 90.112C12.56 90.048 12.496 89.9947 12.432 89.952H10.064C9.95733 89.8453 9.85067 89.7387 9.744 89.632C9.616 89.5253 9.49867 89.4187 9.392 89.312H16.944C16.9227 89.2693 16.9013 89.2373 16.88 89.216C16.8587 89.1947 16.8373 89.1733 16.816 89.152H11.92C11.8347 89.0667 11.7493 88.96 11.664 88.832H12.976C12.9547 88.7893 12.9333 88.7573 12.912 88.736C12.8907 88.7147 12.8693 88.6933 12.848 88.672H16.848L16.56 88.192H14.576L14.48 88.032H9.968C9.94667 87.9467 9.91467 87.872 9.872 87.808C9.82933 87.7227 9.78667 87.6373 9.744 87.552H11.888L11.696 87.072H10.928L10.864 86.912H11.216C11.1947 86.8267 11.1733 86.752 11.152 86.688C11.1307 86.6027 11.1093 86.5173 11.088 86.432H10.832C10.832 86.3467 10.8213 86.272 10.8 86.208C10.8 86.1227 10.7893 86.0373 10.768 85.952H10.512C10.512 85.8667 10.5013 85.792 10.48 85.728C10.48 85.664 10.48 85.5893 10.48 85.504V85.472H10.448C10.448 85.4293 10.448 85.3973 10.448 85.376C10.4693 85.3547 10.48 85.3333 10.48 85.312H11.216C11.3227 84.9707 11.5467 84.8 11.888 84.8H17.968C18.3093 84.8 18.5653 84.8427 18.736 84.928C18.9067 85.0133 19.0987 85.1413 19.312 85.312H18.576L18.608 85.344C18.6507 85.3653 18.6827 85.3867 18.704 85.408C18.7467 85.4293 18.7787 85.4507 18.8 85.472H18.832C19.1093 85.6853 19.4507 85.8453 19.856 85.952H20.144C20.4213 86.0373 20.7947 86.08 21.264 86.08C21.5413 86.08 21.7973 86.0693 22.032 86.048C22.2667 86.0267 22.4693 85.9947 22.64 85.952H22.544C23.0347 85.8453 23.344 85.6853 23.472 85.472H23.408C23.4507 85.3867 23.472 85.3333 23.472 85.312H23.792L23.824 85.184C23.824 84.992 23.7493 84.8213 23.6 84.672H23.344C23.152 84.48 22.8107 84.32 22.32 84.192H22.224C22.032 84.128 21.808 84.0747 21.552 84.032C21.296 83.968 20.9973 83.9147 20.656 83.872H20.464L19.152 83.68C19.0027 83.6587 18.8533 83.6373 18.704 83.616C18.576 83.5947 18.4373 83.5733 18.288 83.552C17.4133 83.4027 16.5707 83.1893 15.76 82.912H15.184C14.8853 82.8053 14.608 82.6987 14.352 82.592H13.904C13.7973 82.5493 13.6907 82.5067 13.584 82.464C13.4773 82.4 13.3707 82.336 13.264 82.272H10.48C10.3307 82.1867 10.192 82.112 10.064 82.048C9.936 81.9627 9.808 81.8773 9.68 81.792H15.632C15.5253 81.7067 15.4187 81.632 15.312 81.568C15.2267 81.4827 15.1307 81.3973 15.024 81.312H8.656C8.592 81.2693 8.53867 81.216 8.496 81.152C8.432 81.088 8.37867 81.0347 8.336 80.992H10C9.808 80.7787 9.62667 80.5653 9.456 80.352H9.936L9.744 80.032H6.672C6.65067 79.9893 6.62933 79.9573 6.608 79.936C6.58667 79.9147 6.576 79.8933 6.576 79.872H13.872C13.8293 79.7867 13.7867 79.712 13.744 79.648C13.7013 79.5627 13.6587 79.4773 13.616 79.392H8.016L7.824 78.912H12.336L12.272 78.752H10.928L10.864 78.592H11.504C11.504 78.5493 11.4933 78.5173 11.472 78.496C11.472 78.4747 11.472 78.4533 11.472 78.432H11.344L11.248 78.112H11.056L11.024 77.792H10.96V77.632H9.936C9.91467 77.5893 9.904 77.536 9.904 77.472C9.904 77.408 9.904 77.3547 9.904 77.312H8.976L8.944 76.992H12.592C12.5707 76.9493 12.56 76.896 12.56 76.832C12.56 76.768 12.56 76.7147 12.56 76.672H13.072V76.64C13.072 76.5333 13.072 76.4267 13.072 76.32C13.072 76.2133 13.0827 76.1173 13.104 76.032H11.728C11.7493 75.9467 11.76 75.872 11.76 75.808C11.76 75.7227 11.7707 75.6373 11.792 75.552H14.032C14.032 75.5093 14.032 75.4773 14.032 75.456C14.0533 75.4347 14.064 75.4133 14.064 75.392H11.792C11.8347 75.264 11.856 75.1573 11.856 75.072H11.504L11.6 74.752H11.056C11.12 74.5173 11.1947 74.304 11.28 74.112H11.536L11.664 73.792H12.016L12.304 73.312H11.984C12.048 73.2267 12.1013 73.152 12.144 73.088C12.208 73.0027 12.2613 72.9173 12.304 72.832H12.048L12.432 72.352H13.104C13.1253 72.3093 13.1467 72.2773 13.168 72.256C13.1893 72.2347 13.2107 72.2133 13.232 72.192H12.336C12.4213 72.1067 12.5067 72.032 12.592 71.968C12.6773 71.8827 12.7627 71.7973 12.848 71.712H13.36C13.488 71.6053 13.616 71.4987 13.744 71.392C13.872 71.264 14.0107 71.1573 14.16 71.072H14.736C14.864 70.9867 14.992 70.912 15.12 70.848C15.248 70.7627 15.3867 70.6773 15.536 70.592H15.44C15.4827 70.5493 15.536 70.5173 15.6 70.496C15.664 70.4747 15.7173 70.4533 15.76 70.432H15.312C15.3547 70.3893 15.408 70.3573 15.472 70.336C15.536 70.3147 15.6 70.2933 15.664 70.272H15.344C15.6427 70.144 15.952 70.0267 16.272 69.92C16.6133 69.8133 16.9547 69.7173 17.296 69.632H17.776C18.2667 69.5253 18.7787 69.44 19.312 69.376C19.8667 69.312 20.4427 69.28 21.04 69.28C22.1707 69.28 23.2373 69.3973 24.24 69.632H23.792C24.4747 69.7813 25.136 69.9947 25.776 70.272H26.064C26.128 70.2933 26.192 70.3147 26.256 70.336C26.32 70.3573 26.384 70.3893 26.448 70.432H26.896C26.9387 70.4533 26.992 70.4747 27.056 70.496C27.12 70.5173 27.1733 70.5493 27.216 70.592H27.312C27.4613 70.6773 27.6 70.7627 27.728 70.848C27.8773 70.912 28.016 70.9867 28.144 71.072H27.6C27.7707 71.1573 27.92 71.264 28.048 71.392C28.1973 71.4987 28.336 71.6053 28.464 71.712H27.984L28.496 72.192H29.392L29.552 72.352H28.88C28.9653 72.4373 29.04 72.5227 29.104 72.608C29.1893 72.672 29.264 72.7467 29.328 72.832H29.584L29.968 73.312H30.256L30.544 73.792H30.192C30.256 73.8987 30.3093 74.0053 30.352 74.112H30.096C30.16 74.2187 30.2133 74.3253 30.256 74.432C30.2987 74.5387 30.3413 74.6453 30.384 74.752H30.928C30.9707 74.88 30.992 74.9867 30.992 75.072H31.376C31.3973 75.1147 31.408 75.168 31.408 75.232C31.408 75.296 31.4187 75.3493 31.44 75.392H33.712V75.552H31.664C31.6853 75.6373 31.696 75.7547 31.696 75.904V76.032H30.512C30.4267 76.416 30.2133 76.608 29.872 76.608H23.472C23.1733 76.608 22.928 76.5653 22.736 76.48C22.5653 76.3947 22.384 76.2667 22.192 76.096L22.096 76.032H23.28C23.1733 75.9467 23.024 75.8613 22.832 75.776C22.64 75.6693 22.3947 75.5947 22.096 75.552H20.944C20.496 75.616 20.1867 75.776 20.016 76.032H21.392C21.328 76.16 21.296 76.288 21.296 76.416C21.296 76.5227 21.3067 76.608 21.328 76.672H20.848C20.8693 76.7787 20.9547 76.8853 21.104 76.992H17.488C17.616 77.0987 17.84 77.2053 18.16 77.312H19.088C19.2587 77.376 19.4613 77.44 19.696 77.504C19.952 77.5467 20.2187 77.5893 20.496 77.632H21.52C21.6907 77.6533 21.872 77.6747 22.064 77.696C22.256 77.7173 22.4587 77.7493 22.672 77.792H22.704C23.0667 77.8347 23.4187 77.888 23.76 77.952C24.1013 77.9947 24.4213 78.048 24.72 78.112H24.912C25.168 78.1547 25.4027 78.208 25.616 78.272C25.8507 78.3147 26.0747 78.368 26.288 78.432H26.416C26.5227 78.4533 26.6187 78.4747 26.704 78.496C26.7893 78.5173 26.8747 78.5493 26.96 78.592H26.352C26.4373 78.6133 26.512 78.6347 26.576 78.656C26.6613 78.6773 26.7467 78.7093 26.832 78.752H28.176C28.24 78.7733 28.304 78.7947 28.368 78.816C28.4533 78.8373 28.528 78.8693 28.592 78.912H24.08C24.5067 79.0827 24.848 79.2427 25.104 79.392H30.704C30.832 79.4773 30.96 79.5627 31.088 79.648C31.216 79.712 31.3333 79.7867 31.44 79.872H24.144C24.1867 79.8933 24.2293 79.9147 24.272 79.936C24.3147 79.9573 24.3467 79.9893 24.368 80.032H27.44C27.504 80.0747 27.568 80.128 27.632 80.192C27.696 80.256 27.7493 80.3093 27.792 80.352H27.312C27.5253 80.544 27.7067 80.7573 27.856 80.992H26.192C26.2347 81.0347 26.2773 81.088 26.32 81.152C26.3627 81.216 26.3947 81.2693 26.416 81.312H32.752L33.04 81.792H27.088C27.1307 81.8773 27.1733 81.9627 27.216 82.048C27.2587 82.112 27.2907 82.1867 27.312 82.272H30.064L30.16 82.592H30.608L30.704 82.912H31.28C31.3227 82.9973 31.344 83.104 31.344 83.232C31.3653 83.3387 31.3867 83.4453 31.408 83.552L31.44 83.872H31.632C31.6533 83.9147 31.664 83.968 31.664 84.032C31.664 84.096 31.664 84.1493 31.664 84.192H31.76V84.672H32.048V84.768C32.048 84.8533 32.0373 84.9387 32.016 85.024C32.016 85.1093 32.016 85.2053 32.016 85.312H31.696V85.472H31.76C31.76 85.5573 31.7493 85.6427 31.728 85.728C31.728 85.792 31.7173 85.8667 31.696 85.952H31.792L31.696 86.432H31.952C31.9307 86.5173 31.9093 86.6027 31.888 86.688C31.8667 86.752 31.8347 86.8267 31.792 86.912H31.44C31.44 86.9333 31.4293 86.9547 31.408 86.976C31.408 86.9973 31.408 87.0293 31.408 87.072H32.176L31.984 87.552H29.84C29.8187 87.6373 29.776 87.7227 29.712 87.808C29.6693 87.872 29.6267 87.9467 29.584 88.032H34.096L34 88.192H35.952C35.9093 88.2773 35.856 88.3627 35.792 88.448C35.7493 88.512 35.696 88.5867 35.632 88.672H31.632C31.6107 88.6933 31.5893 88.7147 31.568 88.736C31.5467 88.7573 31.5253 88.7893 31.504 88.832ZM23.184 75.552H24.144C24.08 75.5307 24.0053 75.52 23.92 75.52C23.856 75.52 23.7813 75.52 23.696 75.52C23.6107 75.52 23.5253 75.52 23.44 75.52C23.3547 75.52 23.2693 75.5307 23.184 75.552ZM54.4565 81.952V82.112H50.9045C50.9258 82.1547 50.9365 82.208 50.9365 82.272C50.9365 82.336 50.9365 82.3893 50.9365 82.432H49.2405V82.912H51.0325V83.392H52.5045V83.872H51.8005V84.032H53.8805V84.672H52.4405V84.96C52.4405 85.1093 52.4298 85.2267 52.4085 85.312H52.8245C52.8245 85.4187 52.8138 85.5253 52.7925 85.632C52.7925 85.7387 52.7818 85.8453 52.7605 85.952H51.3845V86.112H52.4405L52.4085 86.432H51.2245L51.1285 86.912H52.1845C52.1632 86.9973 52.1418 87.0827 52.1205 87.168C52.1205 87.232 52.0992 87.3067 52.0565 87.392H52.4725L52.2805 88.032H51.6725C51.6512 88.0747 51.6298 88.128 51.6085 88.192C51.6085 88.256 51.5872 88.3093 51.5445 88.352H51.8005C51.7578 88.4373 51.7152 88.5227 51.6725 88.608C51.6512 88.672 51.6192 88.7467 51.5765 88.832H51.5445C51.4592 89.0453 51.3418 89.2587 51.1925 89.472H50.7445C50.6592 89.5787 50.5845 89.6853 50.5205 89.792C50.4565 89.8987 50.3712 90.0053 50.2645 90.112H50.5845C50.5632 90.1547 50.5205 90.208 50.4565 90.272L50.2965 90.432H50.4565C50.4352 90.4533 50.4138 90.4747 50.3925 90.496C50.3712 90.5173 50.3392 90.5493 50.2965 90.592H50.3285C50.0725 90.848 49.8165 91.0613 49.5605 91.232H49.4965C49.2618 91.4027 48.9845 91.5627 48.6645 91.712H48.4085C47.5338 92.1173 46.5312 92.32 45.4005 92.32C44.3338 92.32 43.4058 92.1173 42.6165 91.712H42.8725C42.6378 91.6053 42.4032 91.4453 42.1685 91.232H42.2005C41.9658 91.0187 41.7632 90.8053 41.5925 90.592V91.232H41.4645V91.712H41.6565V92.352H40.7925V92.992H41.2725V93.472H42.1685V93.792H41.5605V93.952H38.8405V94.592H39.6085V94.752H42.1365V95.392H40.7605V95.872H41.0485V96.512H41.4005V97.152H41.2725V97.312H41.4005C41.3578 97.6107 41.2192 97.824 40.9845 97.952H40.3765C40.2698 98.0373 40.1205 98.08 39.9285 98.08H34.0085C33.7952 98.08 33.6352 98.0373 33.5285 97.952H34.1685C33.9338 97.824 33.7952 97.6107 33.7525 97.312H33.6245V97.152H33.7525V96.512H33.4005V95.872H33.1125V95.392H34.4885V94.752H31.9605V94.592H31.1925V93.952H33.9125V93.792H34.5205V93.472H33.6245V92.992H33.1445V92.352H34.0085V91.712H33.8165V91.232H33.9445V90.592H34.1365V90.432H33.5925V90.272H33.6245V90.112H33.2725V89.472H33.7525V88.352H33.5285V88.032H34.1365V87.392H33.7205V86.912H32.6965V86.432H34.2645V86.112H33.3685V85.952H33.8165V85.312H33.0485V84.672H34.5205V84.032H35.9605V83.872H34.4885V83.392H33.0805V82.912H31.3525V82.432H35.4805V82.112H30.7445V81.952H33.0165V81.632H34.1365V81.312H34.0085V80.672H33.7525V80.352H33.0485V79.712H33.5605V79.072H35.4165V78.592H32.4725V78.272H36.1205V77.632H36.9525V77.472H35.4165V77.152H35.6405V76.672H34.5845V76.512H38.7125V76.352H35.8645V76.224C35.8645 76.0747 35.8965 75.9573 35.9605 75.872H34.4565C34.6058 75.5307 34.8725 75.36 35.2565 75.36H40.6965C41.0592 75.36 41.3152 75.5307 41.4645 75.872H42.8405C43.0752 75.7227 43.3205 75.5947 43.5765 75.488C43.8538 75.3813 44.1418 75.296 44.4405 75.232H43.8645C44.3765 75.104 44.9418 75.04 45.5605 75.04C46.2005 75.04 46.8085 75.104 47.3845 75.232H47.9605C48.5578 75.36 49.1232 75.5733 49.6565 75.872H51.5125C51.7472 75.9787 51.9818 76.1387 52.2165 76.352H52.0565L52.2485 76.512H53.8805L54.0725 76.672H50.7125L51.1605 77.152H52.4085L52.6325 77.472H54.1685C54.1898 77.4933 54.2112 77.5147 54.2325 77.536C54.2538 77.5573 54.2752 77.5893 54.2965 77.632H53.4645C53.6138 77.8027 53.7418 78.016 53.8485 78.272H50.2005C50.2432 78.3147 50.2752 78.368 50.2965 78.432C50.3178 78.496 50.3392 78.5493 50.3605 78.592H53.2725C53.3152 78.6773 53.3578 78.7627 53.4005 78.848C53.4432 78.912 53.4752 78.9867 53.4965 79.072H51.6405L51.8325 79.712H51.3205C51.3632 79.7973 51.3952 79.904 51.4165 80.032C51.4378 80.1387 51.4592 80.2453 51.4805 80.352H52.1845C52.2272 80.48 52.2485 80.5867 52.2485 80.672H52.5045L52.6005 81.312H51.9925L52.0245 81.632H48.1205C48.1418 81.6747 48.1525 81.728 48.1525 81.792C48.1525 81.856 48.1525 81.9093 48.1525 81.952H54.4565ZM42.9685 75.872C43.0112 75.936 43.0325 76.0533 43.0325 76.224V76.352H44.0245C44.2165 76.1813 44.4405 76.0213 44.6965 75.872H42.9685ZM41.7525 76.512V76.672H45.1445C45.1658 76.6293 45.1872 76.5973 45.2085 76.576C45.2512 76.5547 45.2832 76.5333 45.3045 76.512H41.7525ZM43.2565 80.768C42.6592 80.768 42.2432 80.9493 42.0085 81.312H42.1045C42.0832 81.3547 42.0618 81.408 42.0405 81.472C42.0192 81.5147 41.9872 81.568 41.9445 81.632H44.0245C44.0032 81.5467 43.9498 81.44 43.8645 81.312H44.4725C44.2378 80.9493 43.8325 80.768 43.2565 80.768ZM46.5845 82.112L46.5205 81.952H38.4885C38.4885 81.9733 38.4778 81.9947 38.4565 82.016C38.4565 82.0373 38.4565 82.0693 38.4565 82.112H46.5845ZM43.2245 83.392C43.2245 83.3067 43.2245 83.232 43.2245 83.168C43.2245 83.0827 43.2138 82.9973 43.1925 82.912H41.4005V82.624C41.4005 82.5813 41.3898 82.5493 41.3685 82.528C41.3685 82.4853 41.3685 82.4533 41.3685 82.432H39.0325C39.0112 82.4747 39.0005 82.5387 39.0005 82.624V82.912H40.7285C40.7072 82.9973 40.6965 83.0827 40.6965 83.168C40.6965 83.232 40.6965 83.3067 40.6965 83.392H42.1045V83.872H43.5445V84.032H42.1045C42.1045 84.1173 42.1045 84.224 42.1045 84.352C42.1258 84.4587 42.1365 84.5653 42.1365 84.672H40.6645C40.6645 84.8 40.6752 84.9067 40.6965 84.992C40.6965 85.1413 40.7072 85.248 40.7285 85.312H41.4965C41.5605 85.568 41.6352 85.7813 41.7205 85.952H41.2725L41.3685 86.112H42.2965C42.4245 86.2613 42.5525 86.368 42.6805 86.432H41.1125C41.3685 86.5387 41.6458 86.592 41.9445 86.592C42.2218 86.592 42.4885 86.5387 42.7445 86.432H43.8965C44.0245 86.368 44.1525 86.2613 44.2805 86.112H43.2245L43.3205 85.952H44.6965C44.7818 85.7813 44.8565 85.568 44.9205 85.312H44.5045L44.6005 84.736V84.672H46.0405C46.0405 84.5653 46.0405 84.4587 46.0405 84.352C46.0405 84.2453 46.0512 84.1387 46.0725 84.032H43.9925V83.872H44.6965V83.392H43.2245ZM76.1568 87.392H73.2128V87.712H75.2928V87.872H74.9088V88.192H74.1088V88.992H74.3968V89.312H75.2928V89.632H73.1488V90.272H75.4208V90.752H74.0768V91.072H74.4928V91.232H74.1088C74.0661 91.36 74.0234 91.4667 73.9808 91.552C73.9594 91.5947 73.9168 91.648 73.8528 91.712H73.8848C73.7994 91.7973 73.7354 91.8507 73.6928 91.872H73.6288C73.5221 91.9573 73.3728 92 73.1808 92H66.9088C66.7381 92 66.5781 91.9573 66.4288 91.872H66.5248C66.4821 91.8507 66.4181 91.7973 66.3328 91.712H66.3008C66.2368 91.648 66.1941 91.5947 66.1728 91.552H66.2048C66.1408 91.4453 66.1088 91.3387 66.1088 91.232H66.4928V91.072H66.0768V90.752H67.4208V90.272H65.1488V89.632H67.2928V89.312H66.3968V88.992H66.1088V88.192H66.9088V87.872H67.2928V87.712H65.2128V87.392H68.1568V87.072H66.0448V86.592H67.0368V86.272H65.7568V86.592H65.0208V87.072H64.4768V87.392H64.7968V87.712H63.6448V87.872H62.9728V88.192H62.9088V88.512H62.8448V88.992H61.6927V89.312H60.3488V89.632H62.4288V90.272H59.9648V90.752H60.7328V91.072H62.4608V91.232H62.9088L62.8128 91.552H62.7808C62.7594 91.5733 62.7381 91.5947 62.7168 91.616C62.6954 91.6373 62.6741 91.6693 62.6528 91.712H62.6848C62.5994 91.7973 62.5354 91.8507 62.4928 91.872H63.1968C63.0474 91.9573 62.8874 92 62.7168 92H56.4768C56.2848 92 56.1354 91.9573 56.0288 91.872H55.3248C55.2821 91.8507 55.2181 91.7973 55.1328 91.712C55.0688 91.648 55.0261 91.5947 55.0048 91.552H55.0368C55.0154 91.5093 54.9941 91.4667 54.9728 91.424C54.9514 91.36 54.9408 91.296 54.9408 91.232H54.4928V91.072H52.7647V90.752H51.9967V90.272H54.4608V89.632H52.3807V89.312H53.7248V88.992H54.8768V88.512H54.9408V88.192H55.0048V87.872H55.6768V87.712H56.8288V87.392H56.5088V87.072H57.0528V86.592H57.7888V86.272H53.8528V86.112H54.3008V85.952H55.0368V85.792H54.3968V85.632H54.9728V85.152H54.9408V84.672H54.3968V84.512H54.8448V84.192H55.3248V84.032H54.5247V83.392H53.6608V83.072H54.3968V82.432H55.2928V82.272H54.7808V82.112H54.7488V81.952H54.8768V81.632H55.7728V81.472H54.5247V81.152H54.9408V80.672H55.6128V80.512H55.1968V80.032H54.9088V79.872H54.6528V79.392H55.2608V78.752H54.2688V78.112H55.2608V77.632H54.2368V76.992H54.9088V76.832H55.2288V76.352H54.8768V75.872H54.7808V75.232H55.0368V74.752H55.9648V74.272H54.7808V73.952H54.0448V73.312H52.1887V72.672H55.5488V72.032H55.2608V71.392H53.9488V71.072H56.1248V70.912H54.8448V70.272H54.5247V70.144C54.5247 70.0373 54.5461 69.92 54.5888 69.792H54.9728C55.1221 69.4507 55.3888 69.28 55.7728 69.28H62.0128C62.3968 69.28 62.6634 69.4507 62.8128 69.792H62.4288C62.4714 69.92 62.4928 70.0373 62.4928 70.144V70.272H62.8128V70.912H64.0928V71.072H61.9167V71.392H63.2288V72.032H63.5168V72.672H60.1568V73.312H62.0128V73.952H62.7488V74.272H63.9328V74.752H63.0048V75.232H62.7488V75.872H62.8448V76.352H63.1968V76.832H63.9648C64.0714 76.7467 64.1674 76.672 64.2528 76.608C64.3381 76.5227 64.4341 76.4373 64.5408 76.352H63.6128C63.7408 76.2667 63.8581 76.1813 63.9648 76.096C64.0928 76.0107 64.2314 75.936 64.3808 75.872C64.9141 75.5733 65.4794 75.36 66.0768 75.232H66.8128C67.3674 75.104 67.9328 75.04 68.5088 75.04C69.0634 75.04 69.5968 75.104 70.1088 75.232H69.3728C69.9274 75.36 70.4608 75.5733 70.9728 75.872C71.0794 75.936 71.1968 76.0107 71.3248 76.096C71.4528 76.16 71.5701 76.2453 71.6768 76.352H72.5728C72.6794 76.4373 72.7648 76.5227 72.8288 76.608C72.9141 76.672 72.9994 76.7467 73.0848 76.832H72.2528C72.2741 76.8533 72.2954 76.8747 72.3168 76.896C72.3381 76.9173 72.3594 76.9493 72.3808 76.992H71.6448C71.7514 77.0773 71.8368 77.184 71.9008 77.312C71.9861 77.4187 72.0714 77.5253 72.1568 77.632H73.2128L73.5008 78.112H72.5088L72.7968 78.752H73.8208C73.8634 78.8373 73.9061 78.944 73.9488 79.072C73.9914 79.1787 74.0234 79.2853 74.0448 79.392H73.4368C73.4794 79.4773 73.5008 79.5627 73.5008 79.648C73.5221 79.712 73.5434 79.7867 73.5648 79.872H73.8208C73.8421 79.9147 73.8528 79.968 73.8528 80.032H74.1728L74.2688 80.512H74.6528C74.6741 80.5547 74.6848 80.608 74.6848 80.672H74.0448L74.0768 80.992H73.7568V81.152H74.2688C74.2901 81.1947 74.3008 81.248 74.3008 81.312C74.3008 81.376 74.3008 81.4293 74.3008 81.472H75.1968V81.632H74.1408V81.952H74.1088C74.1301 81.9947 74.1408 82.048 74.1408 82.112H74.1088V82.272H74.0128V82.432H74.0768V83.072H72.8288V83.392H74.1728V84.032H74.0448V84.192H74.3328V84.512H73.7248V84.672H74.2368V85.152H74.7168V85.632H74.1088V85.792H74.4288V85.952H74.6528V86.112H73.3088V86.272H75.0368V86.592H74.0448V87.072H76.1568V87.392ZM63.1008 76.832H62.8767V76.992H62.9408C62.9834 76.9493 63.0154 76.9173 63.0368 76.896C63.0581 76.8747 63.0794 76.8533 63.1008 76.832ZM65.3088 86.112H66.6528V85.952H66.4288V85.792H66.1088V85.632H66.7168V85.152H66.2368V84.672H65.7248V84.512H66.3328V84.192H66.0448V84.032H66.1728V83.392H64.8288V83.072H66.0768V82.432H66.0128V82.272H66.1088C66.1088 82.2293 66.0981 82.1973 66.0768 82.176C66.0768 82.1547 66.0768 82.1333 66.0768 82.112H66.1088C66.0874 82.0693 66.0768 82.016 66.0768 81.952H66.1088L66.0128 81.632H67.0688C67.0261 81.5467 67.0048 81.4933 67.0048 81.472H66.1088C66.0874 81.408 66.0448 81.3547 65.9808 81.312C65.9381 81.248 65.8954 81.1947 65.8528 81.152H65.3408C65.2554 81.0667 65.1808 81.0133 65.1168 80.992H65.4688C65.2341 80.8427 64.9248 80.768 64.5408 80.768C64.1568 80.768 63.8581 80.8427 63.6448 80.992H63.6128C63.5701 81.0133 63.5061 81.0667 63.4208 81.152H63.0048C62.9621 81.1947 62.9194 81.248 62.8767 81.312C62.8341 81.3547 62.7914 81.408 62.7488 81.472H63.9648C63.9221 81.5573 63.9008 81.6107 63.9008 81.632H63.0048L62.9088 81.952H62.7488C62.7488 82.016 62.7381 82.0693 62.7168 82.112H62.7808V82.272H63.2608V82.432H62.3648V83.072H61.6288V83.392H62.4928V84.032H63.2928V84.192H62.8128V84.512H62.3648V84.672H62.9088V85.152H62.9408V85.632H62.3648V85.792H63.0048V85.952H62.2688V86.112H61.8208V86.272H65.3088V86.112ZM93.103 83.232V83.552H97.167V83.872H94.703V84.192H93.551V84.512H94.543V84.704C94.543 84.832 94.5323 84.928 94.511 84.992H94.959C94.8097 85.376 94.5323 85.568 94.127 85.568H84.591V85.632H85.871V85.728C85.871 85.8133 85.871 85.9093 85.871 86.016C85.871 86.1013 85.8817 86.1867 85.903 86.272H84.175C84.175 86.336 84.175 86.4 84.175 86.464C84.1963 86.5067 84.207 86.5493 84.207 86.592H84.015C84.015 86.6773 84.0363 86.784 84.079 86.912H84.207C84.3137 87.2107 84.4843 87.424 84.719 87.552H83.855C84.0043 87.6373 84.207 87.68 84.463 87.68C84.6337 87.68 84.7723 87.6373 84.879 87.552H86.383C86.4683 87.5093 86.543 87.4453 86.607 87.36C86.6923 87.2747 86.7883 87.1893 86.895 87.104L87.087 86.912H86.479C86.671 86.7413 86.959 86.656 87.343 86.656H93.391C93.647 86.656 93.839 86.7413 93.967 86.912H94.543C94.6497 87.0613 94.703 87.2107 94.703 87.36C94.6817 87.4027 94.671 87.4667 94.671 87.552H93.167C93.1243 87.7653 93.0603 87.9787 92.975 88.192H91.407C91.343 88.2987 91.2897 88.4053 91.247 88.512H95.215C95.1723 88.6187 95.1083 88.7253 95.023 88.832C94.959 88.9387 94.8843 89.0453 94.799 89.152H93.839C93.7537 89.28 93.6683 89.3867 93.583 89.472H93.807C93.7857 89.4933 93.7643 89.5147 93.743 89.536C93.7217 89.5573 93.7003 89.5893 93.679 89.632H91.887L91.727 89.792H92.271C92.2497 89.8133 92.2177 89.8347 92.175 89.856C92.1537 89.8773 92.1323 89.9093 92.111 89.952H93.103C92.9537 90.1013 92.7617 90.2613 92.527 90.432H92.047C92.0257 90.4533 91.9937 90.4747 91.951 90.496C91.9083 90.5173 91.8657 90.5493 91.823 90.592H91.471C91.1297 90.8267 90.7563 91.04 90.351 91.232H89.935C89.679 91.36 89.4017 91.4773 89.103 91.584C88.8257 91.6907 88.527 91.7867 88.207 91.872H87.695C87.4603 91.936 87.215 91.9893 86.959 92.032C86.703 92.096 86.4257 92.1493 86.127 92.192H87.471C87.1723 92.2347 86.863 92.2667 86.543 92.288C86.223 92.3093 85.8817 92.32 85.519 92.32C85.1777 92.32 84.8363 92.3093 84.495 92.288C84.1537 92.2667 83.823 92.2347 83.503 92.192H82.159C81.8817 92.1493 81.615 92.096 81.359 92.032C81.103 91.9893 80.847 91.936 80.591 91.872H81.103C80.527 91.7227 79.983 91.5093 79.471 91.232H79.887C79.503 91.0187 79.1723 90.8053 78.895 90.592H79.247C79.2043 90.5493 79.1617 90.5173 79.119 90.496C79.0977 90.4747 79.0657 90.4533 79.023 90.432H79.503C79.4177 90.3467 79.3323 90.272 79.247 90.208C79.1617 90.1227 79.0763 90.0373 78.991 89.952H77.967L77.807 89.792H77.263C77.2417 89.7493 77.2203 89.7173 77.199 89.696C77.1777 89.6747 77.1563 89.6533 77.135 89.632H78.895C78.8737 89.5893 78.831 89.536 78.767 89.472H78.543C78.5003 89.4293 78.4577 89.376 78.415 89.312C78.3723 89.248 78.3297 89.1947 78.287 89.152H79.247C79.183 89.0453 79.119 88.9387 79.055 88.832C78.991 88.7253 78.927 88.6187 78.863 88.512H74.863C74.799 88.4053 74.7457 88.2987 74.703 88.192H76.271L75.983 87.552H76.847C76.8043 87.4453 76.7617 87.3387 76.719 87.232C76.6977 87.1253 76.6657 87.0187 76.623 86.912H76.527L76.431 86.592H76.655L76.559 86.272H78.287C78.2657 86.1653 78.2443 86.0587 78.223 85.952C78.2017 85.8453 78.1803 85.7387 78.159 85.632H76.879L76.815 84.992H76.367C76.367 84.9067 76.3563 84.832 76.335 84.768C76.335 84.6827 76.335 84.5973 76.335 84.512H75.343V84.192H76.463V83.872H78.927V83.552H74.863V83.488C74.863 83.3813 74.8737 83.296 74.895 83.232H80.431C80.431 83.1467 80.431 83.072 80.431 83.008C80.4523 82.9227 80.463 82.8373 80.463 82.752H75.375C75.375 82.7093 75.375 82.6773 75.375 82.656C75.3963 82.6347 75.407 82.6133 75.407 82.592H77.519C77.519 82.528 77.5297 82.4747 77.551 82.432H79.919V82.272H75.407C75.4283 82.1653 75.4497 82.0587 75.471 81.952C75.4923 81.8453 75.5137 81.7387 75.535 81.632H76.751C76.751 81.5467 76.7723 81.44 76.815 81.312H75.759C75.759 81.2693 75.759 81.2373 75.759 81.216C75.7803 81.1947 75.791 81.1733 75.791 81.152H76.559C76.559 81.1093 76.559 81.0773 76.559 81.056C76.5803 81.0347 76.591 81.0133 76.591 80.992H75.791L75.855 80.832H76.623L76.719 80.512H77.327L77.519 80.032H76.943C76.9857 79.9253 77.0283 79.8187 77.071 79.712C77.1137 79.584 77.167 79.4773 77.231 79.392H77.135L77.199 79.232H76.399C76.4417 79.1467 76.463 79.0933 76.463 79.072H75.727L75.919 78.752H77.487C77.5083 78.7093 77.551 78.656 77.615 78.592H78.191C78.2763 78.4853 78.351 78.3787 78.415 78.272C78.5003 78.144 78.5857 78.0373 78.671 77.952H78.095C78.159 77.8667 78.223 77.792 78.287 77.728C78.3723 77.6427 78.4577 77.5573 78.543 77.472H79.791L80.111 77.152H78.223C78.5003 76.9173 78.7777 76.704 79.055 76.512H80.815L81.071 76.352H80.495C80.6657 76.2453 80.8683 76.1387 81.103 76.032H82.351C82.927 75.7547 83.5243 75.5413 84.143 75.392H82.351C82.8203 75.2853 83.311 75.2 83.823 75.136C84.335 75.072 84.8683 75.04 85.423 75.04C85.9777 75.04 86.5003 75.072 86.991 75.136C87.4817 75.2 87.951 75.2853 88.399 75.392H90.159C90.479 75.4773 90.7777 75.5733 91.055 75.68C91.3537 75.7867 91.6417 75.904 91.919 76.032H90.671C90.7777 76.0747 90.8737 76.128 90.959 76.192C91.0657 76.2347 91.1617 76.288 91.247 76.352H91.823C91.8657 76.3733 91.9083 76.3947 91.951 76.416C91.9937 76.4373 92.0363 76.4693 92.079 76.512H90.319C90.5963 76.704 90.8737 76.9173 91.151 77.152H93.071L93.391 77.472H92.143C92.2283 77.5573 92.303 77.6427 92.367 77.728C92.4523 77.792 92.527 77.8667 92.591 77.952H93.167C93.2523 78.0373 93.327 78.144 93.391 78.272C93.4763 78.3787 93.5617 78.4853 93.647 78.592H93.039C93.0603 78.6347 93.103 78.688 93.167 78.752H91.567L91.759 79.072H92.495L92.591 79.232H93.423C93.423 79.2533 93.4443 79.3067 93.487 79.392H93.583L93.871 80.032L94.063 80.512H94.095L94.191 80.832H93.807L93.871 80.992H94.159L94.223 81.152H94.735C94.735 81.1733 94.735 81.1947 94.735 81.216C94.7563 81.2373 94.767 81.2693 94.767 81.312H94.511L94.607 81.632H93.391L93.487 82.272H97.999V82.432H95.631C95.631 82.4533 95.631 82.4747 95.631 82.496C95.6523 82.5173 95.663 82.5493 95.663 82.592H93.519C93.5403 82.6347 93.551 82.688 93.551 82.752H98.639C98.639 82.8373 98.639 82.9227 98.639 83.008C98.639 83.072 98.6497 83.1467 98.671 83.232H93.103ZM83.375 81.152V81.312H84.399V81.568H86.959V81.312H87.183V81.152H86.671V80.992H86.351C86.351 80.928 86.3403 80.8747 86.319 80.832H86.703C86.703 80.7467 86.6817 80.64 86.639 80.512H86.607C86.5857 80.32 86.5217 80.16 86.415 80.032C86.2017 79.6907 85.871 79.52 85.423 79.52C84.9963 79.52 84.6763 79.6907 84.463 80.032H85.039C84.9537 80.16 84.8897 80.32 84.847 80.512H84.207C84.207 80.5547 84.1963 80.608 84.175 80.672C84.175 80.7147 84.1643 80.768 84.143 80.832H83.375C83.375 80.896 83.3643 80.9493 83.343 80.992H84.143V81.152H83.375ZM111.121 77.792H112.337V78.432H112.273V79.072H111.153V79.552H111.441V80.192H111.185V80.832H110.609V80.992H108.593V81.216C108.593 81.2587 108.582 81.3013 108.561 81.344C108.561 81.3867 108.55 81.4293 108.529 81.472H109.265C109.158 81.8773 108.881 82.08 108.433 82.08H104.305C104.219 82.08 104.134 82.08 104.049 82.08C103.985 82.08 103.921 82.0907 103.857 82.112H105.137C105.03 82.1333 104.934 82.1547 104.849 82.176C104.763 82.1973 104.667 82.2293 104.561 82.272H105.617C105.553 82.2933 105.457 82.3467 105.329 82.432H105.937L105.745 82.592H105.905C105.777 82.72 105.681 82.88 105.617 83.072H104.657C104.614 83.1573 104.593 83.2107 104.593 83.232H104.273C104.273 83.2533 104.262 83.2747 104.241 83.296C104.241 83.3173 104.241 83.3493 104.241 83.392H104.625C104.603 83.4347 104.593 83.488 104.593 83.552C104.593 83.5947 104.582 83.648 104.561 83.712H104.753V84.192H104.305V84.512H104.753V84.992H105.233V85.632H104.529V85.792H104.017V85.952H105.937V86.432H104.977V86.752H105.297V87.072H104.561V87.712H104.145V87.872H103.729V88.352H104.817V88.832H104.241V89.312H104.817V89.472H104.753V89.792H104.049V90.112H104.561V90.752H104.689V91.232H104.561C104.518 91.5307 104.379 91.744 104.145 91.872H103.857C103.75 91.9573 103.601 92 103.409 92H97.3285C97.1365 92 96.9872 91.9573 96.8805 91.872H97.1685C96.9338 91.744 96.7952 91.5307 96.7525 91.232H96.8805V90.752H96.7525V90.112H96.2405V89.792H96.9445V89.472H97.0085V89.312H96.4325V88.832H97.0085V88.352H95.9205V87.872H96.3365V87.712H96.7525V87.072H97.4885V86.752H97.1685V86.432H98.1285V85.952H96.2085V85.792H96.7205V85.632H97.4245V84.992H96.9445V84.512H96.4965V84.192H96.9445V83.712H96.7525V83.392H96.3685V83.232H96.6885V83.072H97.6485V82.592H97.4885V82.432H96.9125V82.272H95.8565V82.112H94.5765V81.472H93.8725V80.992H95.8885V80.832H96.4645V80.192H96.7205V79.552H96.4325V79.072H97.5525V78.432H97.6165V77.792H96.4005V77.312H97.4245V76.672H96.4325V76.512H96.7525V76.224C96.7525 76.1173 96.7738 76 96.8165 75.872H96.7845C96.9338 75.5307 97.2005 75.36 97.5845 75.36H103.185C103.547 75.36 103.803 75.5307 103.953 75.872H104.017C104.059 76 104.081 76.1173 104.081 76.224V76.512H103.76V76.672H104.753V76.768L104.881 76.672H104.945C104.987 76.6293 105.03 76.5973 105.073 76.576C105.115 76.5547 105.147 76.5333 105.169 76.512H105.233C105.659 76.2347 106.075 76.0213 106.481 75.872H106.545C106.971 75.7013 107.398 75.5733 107.825 75.488C108.251 75.4027 108.699 75.36 109.169 75.36H110.705C111.089 75.36 111.355 75.5307 111.505 75.872H111.441C111.483 76 111.505 76.1173 111.505 76.224V76.512H111.472V76.672H111.409V77.312H111.121V77.792ZM129.603 83.232V83.552H133.667V83.872H131.203V84.192H130.051V84.512H131.043V84.704C131.043 84.832 131.032 84.928 131.011 84.992H131.459C131.31 85.376 131.032 85.568 130.627 85.568H121.091V85.632H122.371V85.728C122.371 85.8133 122.371 85.9093 122.371 86.016C122.371 86.1013 122.382 86.1867 122.403 86.272H120.675C120.675 86.336 120.675 86.4 120.675 86.464C120.696 86.5067 120.707 86.5493 120.707 86.592H120.515C120.515 86.6773 120.536 86.784 120.579 86.912H120.707C120.814 87.2107 120.984 87.424 121.219 87.552H120.355C120.504 87.6373 120.707 87.68 120.963 87.68C121.134 87.68 121.272 87.6373 121.379 87.552H122.883C122.968 87.5093 123.043 87.4453 123.107 87.36C123.192 87.2747 123.288 87.1893 123.395 87.104L123.587 86.912H122.979C123.171 86.7413 123.459 86.656 123.843 86.656H129.891C130.147 86.656 130.339 86.7413 130.467 86.912H131.043C131.15 87.0613 131.203 87.2107 131.203 87.36C131.182 87.4027 131.171 87.4667 131.171 87.552H129.667C129.624 87.7653 129.56 87.9787 129.475 88.192H127.907C127.843 88.2987 127.79 88.4053 127.747 88.512H131.715C131.672 88.6187 131.608 88.7253 131.523 88.832C131.459 88.9387 131.384 89.0453 131.299 89.152H130.339C130.254 89.28 130.168 89.3867 130.083 89.472H130.307C130.286 89.4933 130.264 89.5147 130.243 89.536C130.222 89.5573 130.2 89.5893 130.179 89.632H128.387L128.227 89.792H128.771C128.75 89.8133 128.718 89.8347 128.675 89.856C128.654 89.8773 128.632 89.9093 128.611 89.952H129.603C129.454 90.1013 129.262 90.2613 129.027 90.432H128.547C128.526 90.4533 128.494 90.4747 128.451 90.496C128.408 90.5173 128.366 90.5493 128.323 90.592H127.971C127.63 90.8267 127.256 91.04 126.851 91.232H126.435C126.179 91.36 125.902 91.4773 125.603 91.584C125.326 91.6907 125.027 91.7867 124.707 91.872H124.195C123.96 91.936 123.715 91.9893 123.459 92.032C123.203 92.096 122.926 92.1493 122.627 92.192H123.971C123.672 92.2347 123.363 92.2667 123.043 92.288C122.723 92.3093 122.382 92.32 122.019 92.32C121.678 92.32 121.336 92.3093 120.995 92.288C120.654 92.2667 120.323 92.2347 120.003 92.192H118.659C118.382 92.1493 118.115 92.096 117.859 92.032C117.603 91.9893 117.347 91.936 117.091 91.872H117.603C117.027 91.7227 116.483 91.5093 115.971 91.232H116.387C116.003 91.0187 115.672 90.8053 115.395 90.592H115.747C115.704 90.5493 115.662 90.5173 115.619 90.496C115.598 90.4747 115.566 90.4533 115.523 90.432H116.003C115.918 90.3467 115.832 90.272 115.747 90.208C115.662 90.1227 115.576 90.0373 115.491 89.952H114.467L114.307 89.792H113.763C113.742 89.7493 113.72 89.7173 113.699 89.696C113.678 89.6747 113.656 89.6533 113.635 89.632H115.395C115.374 89.5893 115.331 89.536 115.267 89.472H115.043C115 89.4293 114.958 89.376 114.915 89.312C114.872 89.248 114.83 89.1947 114.787 89.152H115.747C115.683 89.0453 115.619 88.9387 115.555 88.832C115.491 88.7253 115.427 88.6187 115.363 88.512H111.363C111.299 88.4053 111.246 88.2987 111.203 88.192H112.771L112.483 87.552H113.347C113.304 87.4453 113.262 87.3387 113.219 87.232C113.198 87.1253 113.166 87.0187 113.123 86.912H113.027L112.931 86.592H113.155L113.059 86.272H114.787C114.766 86.1653 114.744 86.0587 114.723 85.952C114.702 85.8453 114.68 85.7387 114.659 85.632H113.379L113.315 84.992H112.867C112.867 84.9067 112.856 84.832 112.835 84.768C112.835 84.6827 112.835 84.5973 112.835 84.512H111.843V84.192H112.963V83.872H115.427V83.552H111.363V83.488C111.363 83.3813 111.374 83.296 111.395 83.232H116.931C116.931 83.1467 116.931 83.072 116.931 83.008C116.952 82.9227 116.963 82.8373 116.963 82.752H111.875C111.875 82.7093 111.875 82.6773 111.875 82.656C111.896 82.6347 111.907 82.6133 111.907 82.592H114.019C114.019 82.528 114.03 82.4747 114.051 82.432H116.419V82.272H111.907C111.928 82.1653 111.95 82.0587 111.971 81.952C111.992 81.8453 112.014 81.7387 112.035 81.632H113.251C113.251 81.5467 113.272 81.44 113.315 81.312H112.259C112.259 81.2693 112.259 81.2373 112.259 81.216C112.28 81.1947 112.291 81.1733 112.291 81.152H113.059C113.059 81.1093 113.059 81.0773 113.059 81.056C113.08 81.0347 113.091 81.0133 113.091 80.992H112.291L112.355 80.832H113.123L113.219 80.512H113.827L114.019 80.032H113.443C113.486 79.9253 113.528 79.8187 113.571 79.712C113.614 79.584 113.667 79.4773 113.731 79.392H113.635L113.699 79.232H112.899C112.942 79.1467 112.963 79.0933 112.963 79.072H112.227L112.419 78.752H113.987C114.008 78.7093 114.051 78.656 114.115 78.592H114.691C114.776 78.4853 114.851 78.3787 114.915 78.272C115 78.144 115.086 78.0373 115.171 77.952H114.595C114.659 77.8667 114.723 77.792 114.787 77.728C114.872 77.6427 114.958 77.5573 115.043 77.472H116.291L116.611 77.152H114.723C115 76.9173 115.278 76.704 115.555 76.512H117.315L117.571 76.352H116.995C117.166 76.2453 117.368 76.1387 117.603 76.032H118.851C119.427 75.7547 120.024 75.5413 120.643 75.392H118.851C119.32 75.2853 119.811 75.2 120.323 75.136C120.835 75.072 121.368 75.04 121.923 75.04C122.478 75.04 123 75.072 123.491 75.136C123.982 75.2 124.451 75.2853 124.899 75.392H126.659C126.979 75.4773 127.278 75.5733 127.555 75.68C127.854 75.7867 128.142 75.904 128.419 76.032H127.171C127.278 76.0747 127.374 76.128 127.459 76.192C127.566 76.2347 127.662 76.288 127.747 76.352H128.323C128.366 76.3733 128.408 76.3947 128.451 76.416C128.494 76.4373 128.536 76.4693 128.579 76.512H126.819C127.096 76.704 127.374 76.9173 127.651 77.152H129.571L129.891 77.472H128.643C128.728 77.5573 128.803 77.6427 128.867 77.728C128.952 77.792 129.027 77.8667 129.091 77.952H129.667C129.752 78.0373 129.827 78.144 129.891 78.272C129.976 78.3787 130.062 78.4853 130.147 78.592H129.539C129.56 78.6347 129.603 78.688 129.667 78.752H128.067L128.259 79.072H128.995L129.091 79.232H129.923C129.923 79.2533 129.944 79.3067 129.987 79.392H130.083L130.371 80.032L130.563 80.512H130.595L130.691 80.832H130.307L130.371 80.992H130.659L130.723 81.152H131.235C131.235 81.1733 131.235 81.1947 131.235 81.216C131.256 81.2373 131.267 81.2693 131.267 81.312H131.011L131.107 81.632H129.891L129.987 82.272H134.499V82.432H132.131C132.131 82.4533 132.131 82.4747 132.131 82.496C132.152 82.5173 132.163 82.5493 132.163 82.592H130.019C130.04 82.6347 130.051 82.688 130.051 82.752H135.139C135.139 82.8373 135.139 82.9227 135.139 83.008C135.139 83.072 135.15 83.1467 135.171 83.232H129.603ZM119.875 81.152V81.312H120.899V81.568H123.459V81.312H123.683V81.152H123.171V80.992H122.851C122.851 80.928 122.84 80.8747 122.819 80.832H123.203C123.203 80.7467 123.182 80.64 123.139 80.512H123.107C123.086 80.32 123.022 80.16 122.915 80.032C122.702 79.6907 122.371 79.52 121.923 79.52C121.496 79.52 121.176 79.6907 120.963 80.032H121.539C121.454 80.16 121.39 80.32 121.347 80.512H120.707C120.707 80.5547 120.696 80.608 120.675 80.672C120.675 80.7147 120.664 80.768 120.643 80.832H119.875C119.875 80.896 119.864 80.9493 119.843 80.992H120.643V81.152H119.875ZM152.239 75.872H151.183L151.151 76.032H154.191L153.999 76.672H151.439L151.279 77.312H151.151L151.055 77.632H148.623L148.431 78.272H146.959L146.863 78.592H150.575L150.543 78.752H150.735L150.543 79.392H150.095L149.967 79.872H150.543L150.447 80.192H150.575L150.479 80.512H149.615L149.487 80.992H150.095L149.999 81.312H149.135L149.071 81.632H148.367L148.239 82.112H147.919L147.823 82.432H149.327L149.231 82.752H150.287L150.223 82.912H147.119L146.927 83.552H148.207L148.079 84.032H146.735L146.543 84.672H148.271L148.111 85.152H148.399L148.367 85.312H148.559L148.495 85.472H148.623L148.591 85.632H148.367L148.271 85.952H147.951L147.823 86.432H147.983L147.887 86.752H147.951L147.791 87.232H147.823L147.695 87.712H147.663L147.503 88.192H147.087L146.991 88.512H147.119L147.087 88.672H147.343L147.151 89.312H147.407L147.311 89.632H147.151L147.023 90.112H147.279L147.183 90.432H146.863L146.799 90.752H146.095L146.031 90.944L145.999 91.072H147.695C147.589 91.3067 147.429 91.52 147.215 91.712H143.119C143.055 91.776 142.97 91.8293 142.863 91.872H146.383C146.298 91.8933 146.202 91.9253 146.095 91.968C145.989 91.9893 145.871 92 145.743 92H138.447C138.319 92 138.202 91.9893 138.095 91.968C138.01 91.9253 137.914 91.8933 137.807 91.872H134.255C134.17 91.8293 134.085 91.776 133.999 91.712H138.063C137.85 91.52 137.69 91.3067 137.583 91.072H135.919C135.898 91.0507 135.887 91.0293 135.887 91.008C135.887 90.9867 135.877 90.9653 135.855 90.944L135.791 90.752H136.495L136.399 90.432H136.719L136.623 90.112H136.335L136.207 89.632H136.335L136.239 89.312H136.015L135.823 88.672H135.567L135.535 88.512H135.407L135.311 88.192H135.727L135.567 87.712H135.599L135.471 87.232H135.439L135.311 86.752H135.247L135.151 86.432H134.991L134.863 85.952H135.151L135.055 85.632H135.279L135.247 85.472H135.119L135.055 85.312H134.863L134.831 85.152H134.543L134.383 84.672H132.655L132.463 84.032H133.807L133.679 83.552H132.399L132.207 82.912H135.311L135.279 82.752H134.255L134.159 82.432H135.151L135.055 82.112H133.679L133.551 81.632H133.999L133.903 81.312H133.711L133.615 80.992H134.127L133.999 80.512H133.327L133.231 80.192H134.447L134.351 79.872H133.135L133.007 79.392H133.359L133.167 78.752H132.047L131.983 78.592H132.143L132.047 78.272H133.423L133.231 77.632H132.367L132.271 77.312H132.527L132.367 76.672H134.287L134.095 76.032H131.119L131.055 75.872H137.711L137.615 75.552H134.031L133.871 75.072H136.143L135.951 74.432H135.695L135.503 73.792H134.383L134.287 73.472H131.183L130.991 72.832H131.215L131.119 72.512L131.087 72.352H130.927L130.863 72.192L130.671 71.552H130.511L130.447 71.392H130.191L130.063 70.912H127.727L127.663 70.752H129.487L129.423 70.528C129.423 70.5067 129.423 70.496 129.423 70.496C129.402 70.4747 129.391 70.4533 129.391 70.432H129.775V70.304C129.775 70.112 129.85 69.9413 129.999 69.792H128.591C128.719 69.664 128.879 69.6 129.071 69.6H135.023C135.343 69.6 135.599 69.664 135.791 69.792H137.199C137.455 69.9413 137.658 70.1547 137.807 70.432H137.391L137.487 70.656L137.519 70.752H135.695L135.727 70.912H138.063L138.191 71.392H138.447L138.479 71.552H138.671L138.831 72.192L138.863 72.352H139.055L139.087 72.512H139.055L139.151 72.832H138.959L139.119 73.472H142.223L142.287 73.792H143.567L143.663 73.472H143.823L143.983 72.832H144.079L144.143 72.512H144.239L144.271 72.352H143.439L143.471 72.192H144.271L144.431 71.552H143.823L143.855 71.392H141.391L141.519 70.912H142.639L142.671 70.752H140.559L140.591 70.656C140.613 70.6133 140.623 70.5707 140.623 70.528C140.623 70.4853 140.634 70.4533 140.655 70.432H144.495C144.602 70.1547 144.794 69.9413 145.071 69.792H146.255C146.49 69.664 146.757 69.6 147.055 69.6H153.007C153.199 69.6 153.359 69.664 153.487 69.792H152.271C152.421 69.9413 152.495 70.112 152.495 70.304V70.432H148.687C148.666 70.4533 148.655 70.4853 148.655 70.528L148.591 70.752H150.703L150.671 70.912H149.519L149.391 71.392H151.855L151.823 71.552H152.399L152.207 72.192H151.439L151.407 72.352H152.239L152.207 72.512H152.111L152.015 72.832H151.919L151.727 73.472H151.567L151.471 73.792H151.247L151.087 74.432H155.055L154.863 75.072H152.655L152.495 75.552H152.303L152.239 75.872ZM141.743 75.072L141.839 75.552H144.655L144.783 75.072H147.023L147.183 74.432H143.823L143.983 75.072H141.743ZM146.191 76.672L146.351 76.032H143.343L143.375 75.872H138.895L138.927 76.032H141.903L142.095 76.672H140.143L140.303 77.312H140.047L140.143 77.632H143.311L143.375 77.312H143.503L143.663 76.672H146.191ZM143.023 78.752H142.831L142.863 78.592H139.727L139.759 78.752H140.879L141.039 79.392H140.687L140.815 79.872H141.999L142.095 80.192H140.879L140.975 80.512H141.647L141.743 80.992H141.231L141.327 81.312H141.487L141.519 81.408L141.551 81.312H142.383L142.479 80.992H141.871L141.967 80.512H142.863L142.927 80.192H142.799L142.863 79.872H142.319L142.415 79.392H142.863L143.023 78.752ZM153.999 72.672V72.032H153.967V71.552H154.255V71.392H154.447V70.752H154.287V70.272H154.319V69.632H154.447V69.152H154.383V68.864C154.383 68.6933 154.404 68.576 154.447 68.512H154.767L154.863 68.352H154.607C154.777 68.1173 155.012 68 155.311 68H160.719C161.017 68 161.252 68.1173 161.423 68.352H161.679L161.775 68.512H161.423C161.487 68.5973 161.519 68.7147 161.519 68.864V69.152H161.583V69.632H161.455V70.272H161.423V70.752H161.583V71.392H161.391V71.552H161.103V72.032H161.135V72.672H161.359V72.736C161.359 72.928 161.284 73.12 161.135 73.312H160.751C160.601 73.504 160.388 73.6 160.111 73.6H154.703C154.425 73.6 154.201 73.504 154.031 73.312H154.415C154.287 73.1413 154.223 72.9493 154.223 72.736V72.672H153.999ZM160.591 79.392H163.599V80.032H162.511V80.352H161.295V80.992H162.223V81.152H161.615V81.472H161.711V81.792H161.871V82.272H160.271V82.752H161.327V83.232H161.135V83.552H161.679V84.032H161.807V84.512H161.615V84.992H161.775V85.312H161.615V85.952H161.551V86.432H161.423V86.912H161.551V87.232H161.615V87.872H161.487V88.192H161.647V88.512H161.615V88.992H161.743V89.472H161.839V89.632H161.615V90.272H161.167V90.912H161.487V91.136C161.487 91.2427 161.476 91.328 161.455 91.392H161.231C161.167 91.6053 161.049 91.7653 160.879 91.872H161.519C161.412 91.9573 161.252 92 161.039 92H155.311C155.119 92 154.969 91.9573 154.863 91.872H154.223C154.031 91.7653 153.903 91.6053 153.839 91.392H154.063C154.041 91.328 154.031 91.2427 154.031 91.136V90.912H153.711V90.272H154.159V89.632H154.383V89.472H154.287V88.992H154.159V88.512H154.191V88.192H154.031V87.872H154.159V87.232H154.095V86.912H153.967V86.432H154.095V85.952H154.159V85.312H154.319V84.992H154.159V84.512H154.351V84.032H154.223V83.552H153.679V83.232H153.871V82.752H152.815V82.272H154.415V81.792H154.255V81.472H154.159V81.152H154.767V80.992H153.839V80.352H155.055V80.032H156.143V79.392H153.135V79.072H155.791V78.432H154.831V77.952H155.407V77.312H154.383V77.152H154.159V76.832H153.967V76.352H154.191V76.224C154.191 75.9893 154.244 75.8187 154.351 75.712H154.383C154.553 75.4773 154.788 75.36 155.087 75.36H160.815C161.113 75.36 161.348 75.4773 161.519 75.712H161.455C161.583 75.84 161.647 76.0107 161.647 76.224V76.352H161.423V76.832H161.615V77.152H161.839V77.312H162.863V77.952H162.287V78.432H163.247V79.072H160.591V79.392ZM185.015 85.472H182.007C182.007 85.5787 181.996 85.6853 181.975 85.792C181.975 85.8987 181.964 86.0053 181.943 86.112H183.031C183.031 86.176 183.02 86.2293 182.999 86.272H183.191C183.169 86.3573 183.148 86.4427 183.127 86.528C183.127 86.592 183.127 86.6667 183.127 86.752H182.647C182.625 86.8373 182.604 86.9227 182.583 87.008C182.583 87.072 182.561 87.1467 182.519 87.232H183.062C183.062 87.296 183.052 87.3493 183.031 87.392H182.839C182.817 87.4987 182.796 87.6053 182.775 87.712C182.753 87.8187 182.721 87.9253 182.679 88.032H182.647C182.583 88.224 182.497 88.4373 182.391 88.672H182.423C182.38 88.7787 182.327 88.8853 182.263 88.992H182.231L182.135 89.152H181.111L180.823 89.632H179.958L179.863 89.792H178.711C178.625 89.8987 178.54 90.0053 178.455 90.112C178.391 90.2187 178.305 90.3253 178.199 90.432H182.807C182.764 90.496 182.711 90.56 182.647 90.624C182.583 90.6667 182.529 90.7093 182.487 90.752H178.807L178.615 90.912H180.823C180.673 91.04 180.513 91.1573 180.343 91.264C180.193 91.3493 180.033 91.4453 179.863 91.552H178.551C178.273 91.7013 177.975 91.8293 177.655 91.936C177.335 92.0427 176.993 92.128 176.631 92.192H177.943C177.708 92.2347 177.463 92.2667 177.207 92.288C176.951 92.3093 176.684 92.32 176.407 92.32C176.151 92.32 175.895 92.3093 175.639 92.288C175.404 92.2667 175.169 92.2347 174.935 92.192H173.623C172.983 92.064 172.375 91.8507 171.799 91.552H170.551C170.359 91.8507 170.103 92 169.783 92H164.343C164.001 92 163.756 91.8507 163.607 91.552H164.919C164.855 91.424 164.823 91.2853 164.823 91.136V90.912H164.023V90.752H163.191V90.432H161.43V89.792H162.55V89.632H163.415V89.152H164.439V88.992H164.503V88.672H164.471V88.032H164.503V87.392H164.695V87.232H164.151V86.752H164.631V86.112H164.855V85.472H163.863V85.312H164.535V84.672H167.895V84.192H166.999V84.032H164.407V83.552H164.343V83.392H164.439V82.752H164.887V82.272H164.663V81.792H164.599V81.472H164.823V80.832H164.023V80.192H164.279V79.712H163.607V79.392H164.375V78.912H164.503V78.272H163.767V77.792H164.663V76.672H163.191V76.032H163.607V75.872H164.503V75.232H164.631V75.072H164.695V74.912H163.927V74.752H164.951V74.272H164.695V74.112H164.471V73.632H165.271V73.312H166.167V72.832H165.495V72.192H164.151V72.032H164.535V71.712H164.183V71.552H163.159V70.912H164.023V70.752H164.343V70.272H164.087V70.112H164.503C164.503 69.856 164.609 69.6427 164.823 69.472H164.567C164.737 69.344 164.919 69.28 165.111 69.28H171.031C171.265 69.28 171.447 69.344 171.575 69.472H171.831C172.044 69.6427 172.151 69.856 172.151 70.112H171.735V70.272H171.991V70.752H171.671V70.912H170.807V71.552H171.831V71.712H172.183V72.032H171.799V72.192H173.143V72.832H173.815V73.312H172.919V73.632H172.119V74.112H172.343V74.272H172.599V74.752H171.575V74.912H172.343V75.072H172.279V75.232H172.151V75.872H171.255V76.032H170.839V76.544C170.945 76.4373 171.052 76.352 171.159 76.288C171.265 76.2027 171.383 76.1173 171.51 76.032H172.727C172.769 75.9893 172.812 75.9573 172.855 75.936C172.919 75.9147 172.961 75.8933 172.983 75.872H173.335C173.847 75.5733 174.391 75.36 174.967 75.232H174.679C174.849 75.1893 175.009 75.1573 175.159 75.136C175.329 75.1147 175.5 75.0933 175.671 75.072H175.511C175.617 75.0507 175.724 75.04 175.831 75.04C175.959 75.04 176.087 75.04 176.215 75.04C176.343 75.04 176.471 75.04 176.599 75.04C176.727 75.04 176.844 75.0507 176.951 75.072H177.111C177.281 75.0933 177.452 75.1147 177.623 75.136C177.815 75.1573 177.985 75.1893 178.135 75.232H178.423C179.02 75.36 179.585 75.5733 180.119 75.872H179.767C179.809 75.8933 179.852 75.9147 179.895 75.936C179.959 75.9573 180.001 75.9893 180.023 76.032H178.807C178.956 76.1173 179.095 76.2133 179.222 76.32C179.372 76.4267 179.511 76.544 179.639 76.672H181.111C181.217 76.7573 181.313 76.864 181.399 76.992C181.505 77.0987 181.601 77.2053 181.687 77.312C181.751 77.3973 181.815 77.4827 181.878 77.568C181.943 77.632 181.996 77.7067 182.039 77.792H181.142C181.271 77.9413 181.367 78.1013 181.431 78.272H182.167C182.209 78.3573 182.263 78.464 182.327 78.592C182.391 78.6987 182.444 78.8053 182.487 78.912H182.327L182.519 79.392H181.783L181.878 79.712H182.551C182.572 79.7973 182.593 79.8827 182.615 79.968C182.636 80.032 182.657 80.1067 182.679 80.192H182.423C182.465 80.2773 182.487 80.384 182.487 80.512C182.508 80.6187 182.529 80.7253 182.551 80.832H183.223L183.319 81.472H182.551C182.551 81.5147 182.551 81.568 182.551 81.632C182.551 81.696 182.561 81.7493 182.583 81.792H183.223C183.223 81.8773 183.223 81.9627 183.223 82.048C183.244 82.112 183.255 82.1867 183.255 82.272H183.127V82.752H183.191C183.212 82.8587 183.223 82.9653 183.223 83.072C183.223 83.1787 183.223 83.2853 183.223 83.392H183.031V83.552H183.671V84.032H183.575V84.192H184.951V84.672H182.519V84.928C182.519 84.992 182.519 85.056 182.519 85.12C182.519 85.184 182.508 85.248 182.487 85.312H185.047C185.025 85.3547 185.015 85.408 185.015 85.472ZM172.023 84.032H174.615V84.192H175.511C175.511 84.2773 175.511 84.3627 175.511 84.448C175.532 84.512 175.543 84.5867 175.543 84.672H177.111C177.111 84.5867 177.111 84.512 177.111 84.448C177.132 84.3627 177.143 84.2773 177.143 84.192H175.735V84.032H175.863V83.552H175.191V83.392H175.383C175.383 83.2853 175.383 83.1787 175.383 83.072C175.383 82.944 175.372 82.8373 175.351 82.752H175.287V82.624C175.265 82.56 175.255 82.5067 175.255 82.464C175.255 82.4 175.244 82.336 175.223 82.272H175.383C175.361 82.1867 175.34 82.112 175.319 82.048C175.319 81.9627 175.297 81.8773 175.255 81.792H174.615C174.572 81.664 174.529 81.5573 174.487 81.472H175.255C175.084 81.1307 174.828 80.9173 174.487 80.832H173.815C173.729 80.8107 173.644 80.8 173.559 80.8C173.473 80.7787 173.377 80.768 173.271 80.768C173.185 80.768 173.089 80.7787 172.983 80.8C172.897 80.8 172.812 80.8107 172.727 80.832H173.495C173.153 80.9173 172.876 81.1307 172.663 81.472H172.47C172.428 81.5573 172.385 81.664 172.343 81.792H172.407C172.385 81.8773 172.364 81.9627 172.343 82.048C172.343 82.112 172.332 82.1867 172.311 82.272H172.535V82.368C172.535 82.432 172.524 82.496 172.503 82.56C172.503 82.624 172.503 82.688 172.503 82.752H172.055C172.033 82.8587 172.023 82.9653 172.023 83.072C172.023 83.1787 172.023 83.2853 172.023 83.392H171.927V83.552H171.991C171.991 83.6373 171.991 83.7227 171.991 83.808C171.991 83.872 172.001 83.9467 172.023 84.032ZM174.871 86.112H173.783C173.911 85.9627 174.007 85.7493 174.071 85.472H177.079C177.1 85.4293 177.111 85.376 177.111 85.312H174.583L174.679 84.736V84.672H172.183V84.736C172.204 84.8213 172.215 84.9173 172.215 85.024C172.215 85.1093 172.225 85.2053 172.247 85.312H171.575L171.639 85.472H172.631C172.673 85.6 172.705 85.7173 172.727 85.824C172.769 85.9307 172.833 86.0267 172.919 86.112H172.663C172.684 86.1333 172.705 86.1547 172.727 86.176C172.769 86.1973 172.801 86.2293 172.823 86.272C173.079 86.4853 173.431 86.592 173.879 86.592C174.305 86.592 174.647 86.4853 174.903 86.272H174.711C174.753 86.2293 174.785 86.1973 174.807 86.176C174.828 86.1547 174.849 86.1333 174.871 86.112ZM173.527 90.752C173.463 90.7093 173.399 90.656 173.335 90.592C173.292 90.528 173.249 90.4747 173.207 90.432H170.359V90.752H173.527ZM173.111 91.552C172.769 91.3387 172.471 91.1253 172.215 90.912H171.991V91.136C171.991 91.2853 171.959 91.424 171.895 91.552H173.111ZM201.947 83.232V83.552H206.011V83.872H203.547V84.192H202.395V84.512H203.387V84.704C203.387 84.832 203.376 84.928 203.355 84.992H203.803C203.653 85.376 203.376 85.568 202.971 85.568H193.435V85.632H194.715V85.728C194.715 85.8133 194.715 85.9093 194.715 86.016C194.715 86.1013 194.725 86.1867 194.747 86.272H193.019C193.019 86.336 193.019 86.4 193.019 86.464C193.04 86.5067 193.051 86.5493 193.051 86.592H192.859C192.859 86.6773 192.88 86.784 192.923 86.912H193.051C193.157 87.2107 193.328 87.424 193.563 87.552H192.699C192.848 87.6373 193.051 87.68 193.307 87.68C193.477 87.68 193.616 87.6373 193.723 87.552H195.227C195.312 87.5093 195.387 87.4453 195.451 87.36C195.536 87.2747 195.632 87.1893 195.739 87.104L195.931 86.912H195.323C195.515 86.7413 195.803 86.656 196.187 86.656H202.235C202.491 86.656 202.683 86.7413 202.811 86.912H203.387C203.493 87.0613 203.547 87.2107 203.547 87.36C203.525 87.4027 203.515 87.4667 203.515 87.552H202.011C201.968 87.7653 201.904 87.9787 201.819 88.192H200.251C200.187 88.2987 200.133 88.4053 200.091 88.512H204.059C204.016 88.6187 203.952 88.7253 203.867 88.832C203.803 88.9387 203.728 89.0453 203.643 89.152H202.683C202.597 89.28 202.512 89.3867 202.427 89.472H202.651C202.629 89.4933 202.608 89.5147 202.587 89.536C202.565 89.5573 202.544 89.5893 202.523 89.632H200.731L200.571 89.792H201.115C201.093 89.8133 201.061 89.8347 201.019 89.856C200.997 89.8773 200.976 89.9093 200.955 89.952H201.947C201.797 90.1013 201.605 90.2613 201.371 90.432H200.891C200.869 90.4533 200.837 90.4747 200.795 90.496C200.752 90.5173 200.709 90.5493 200.667 90.592H200.315C199.973 90.8267 199.6 91.04 199.195 91.232H198.779C198.523 91.36 198.245 91.4773 197.947 91.584C197.669 91.6907 197.371 91.7867 197.051 91.872H196.539C196.304 91.936 196.059 91.9893 195.803 92.032C195.547 92.096 195.269 92.1493 194.971 92.192H196.315C196.016 92.2347 195.707 92.2667 195.387 92.288C195.067 92.3093 194.725 92.32 194.363 92.32C194.021 92.32 193.68 92.3093 193.339 92.288C192.997 92.2667 192.667 92.2347 192.347 92.192H191.003C190.725 92.1493 190.459 92.096 190.203 92.032C189.947 91.9893 189.691 91.936 189.435 91.872H189.947C189.371 91.7227 188.827 91.5093 188.315 91.232H188.731C188.347 91.0187 188.016 90.8053 187.739 90.592H188.091C188.048 90.5493 188.005 90.5173 187.963 90.496C187.941 90.4747 187.909 90.4533 187.867 90.432H188.347C188.261 90.3467 188.176 90.272 188.091 90.208C188.005 90.1227 187.92 90.0373 187.835 89.952H186.811L186.651 89.792H186.107C186.085 89.7493 186.064 89.7173 186.043 89.696C186.021 89.6747 186 89.6533 185.979 89.632H187.739C187.717 89.5893 187.675 89.536 187.611 89.472H187.387C187.344 89.4293 187.301 89.376 187.259 89.312C187.216 89.248 187.173 89.1947 187.131 89.152H188.091C188.027 89.0453 187.963 88.9387 187.899 88.832C187.835 88.7253 187.771 88.6187 187.707 88.512H183.707C183.643 88.4053 183.589 88.2987 183.547 88.192H185.115L184.827 87.552H185.691C185.648 87.4453 185.605 87.3387 185.563 87.232C185.541 87.1253 185.509 87.0187 185.467 86.912H185.371L185.275 86.592H185.499L185.403 86.272H187.131C187.109 86.1653 187.088 86.0587 187.067 85.952C187.045 85.8453 187.024 85.7387 187.003 85.632H185.723L185.659 84.992H185.211C185.211 84.9067 185.2 84.832 185.179 84.768C185.179 84.6827 185.179 84.5973 185.179 84.512H184.187V84.192H185.307V83.872H187.771V83.552H183.707V83.488C183.707 83.3813 183.717 83.296 183.739 83.232H189.275C189.275 83.1467 189.275 83.072 189.275 83.008C189.296 82.9227 189.307 82.8373 189.307 82.752H184.219C184.219 82.7093 184.219 82.6773 184.219 82.656C184.24 82.6347 184.251 82.6133 184.251 82.592H186.363C186.363 82.528 186.373 82.4747 186.395 82.432H188.763V82.272H184.251C184.272 82.1653 184.293 82.0587 184.315 81.952C184.336 81.8453 184.357 81.7387 184.379 81.632H185.595C185.595 81.5467 185.616 81.44 185.659 81.312H184.603C184.603 81.2693 184.603 81.2373 184.603 81.216C184.624 81.1947 184.635 81.1733 184.635 81.152H185.403C185.403 81.1093 185.403 81.0773 185.403 81.056C185.424 81.0347 185.435 81.0133 185.435 80.992H184.635L184.699 80.832H185.467L185.563 80.512H186.171L186.363 80.032H185.787C185.829 79.9253 185.872 79.8187 185.915 79.712C185.957 79.584 186.011 79.4773 186.075 79.392H185.979L186.043 79.232H185.243C185.285 79.1467 185.307 79.0933 185.307 79.072H184.571L184.763 78.752H186.331C186.352 78.7093 186.395 78.656 186.459 78.592H187.035C187.12 78.4853 187.195 78.3787 187.259 78.272C187.344 78.144 187.429 78.0373 187.515 77.952H186.939C187.003 77.8667 187.067 77.792 187.131 77.728C187.216 77.6427 187.301 77.5573 187.387 77.472H188.635L188.955 77.152H187.067C187.344 76.9173 187.621 76.704 187.899 76.512H189.659L189.915 76.352H189.339C189.509 76.2453 189.712 76.1387 189.947 76.032H191.195C191.771 75.7547 192.368 75.5413 192.987 75.392H191.195C191.664 75.2853 192.155 75.2 192.667 75.136C193.179 75.072 193.712 75.04 194.267 75.04C194.821 75.04 195.344 75.072 195.835 75.136C196.325 75.2 196.795 75.2853 197.243 75.392H199.003C199.323 75.4773 199.621 75.5733 199.899 75.68C200.197 75.7867 200.485 75.904 200.763 76.032H199.515C199.621 76.0747 199.717 76.128 199.803 76.192C199.909 76.2347 200.005 76.288 200.091 76.352H200.667C200.709 76.3733 200.752 76.3947 200.795 76.416C200.837 76.4373 200.88 76.4693 200.923 76.512H199.163C199.44 76.704 199.717 76.9173 199.995 77.152H201.915L202.235 77.472H200.987C201.072 77.5573 201.147 77.6427 201.211 77.728C201.296 77.792 201.371 77.8667 201.435 77.952H202.011C202.096 78.0373 202.171 78.144 202.235 78.272C202.32 78.3787 202.405 78.4853 202.491 78.592H201.883C201.904 78.6347 201.947 78.688 202.011 78.752H200.411L200.603 79.072H201.339L201.435 79.232H202.267C202.267 79.2533 202.288 79.3067 202.331 79.392H202.427L202.715 80.032L202.907 80.512H202.939L203.035 80.832H202.651L202.715 80.992H203.003L203.067 81.152H203.579C203.579 81.1733 203.579 81.1947 203.579 81.216C203.6 81.2373 203.611 81.2693 203.611 81.312H203.355L203.451 81.632H202.235L202.331 82.272H206.843V82.432H204.475C204.475 82.4533 204.475 82.4747 204.475 82.496C204.496 82.5173 204.507 82.5493 204.507 82.592H202.363C202.384 82.6347 202.395 82.688 202.395 82.752H207.483C207.483 82.8373 207.483 82.9227 207.483 83.008C207.483 83.072 207.493 83.1467 207.515 83.232H201.947ZM192.219 81.152V81.312H193.243V81.568H195.803V81.312H196.027V81.152H195.515V80.992H195.195C195.195 80.928 195.184 80.8747 195.163 80.832H195.547C195.547 80.7467 195.525 80.64 195.483 80.512H195.451C195.429 80.32 195.365 80.16 195.259 80.032C195.045 79.6907 194.715 79.52 194.267 79.52C193.84 79.52 193.52 79.6907 193.307 80.032H193.883C193.797 80.16 193.733 80.32 193.691 80.512H193.051C193.051 80.5547 193.04 80.608 193.019 80.672C193.019 80.7147 193.008 80.768 192.987 80.832H192.219C192.219 80.896 192.208 80.9493 192.187 80.992H192.987V81.152H192.219Z" fill="white"/>
<defs>
<clipPath id="clip0_1223_3923">
<rect width="48" height="48" fill="white" transform="translate(83.5)"/>
</clipPath>
</defs>
</svg>
