<svg width="49" height="48" viewBox="0 0 49 48" fill="none" xmlns="http://www.w3.org/2000/svg">
<g clip-path="url(#clip0_1223_3918)">
<path d="M48.2091 20.271C48.0724 19.4158 47.3407 18.7855 46.4767 18.7855H30.0168H26.6842H18.9921C17.8151 18.7855 17.0789 17.5115 17.6652 16.4888L23.1754 6.94085C23.7661 5.91817 25.2384 5.91817 25.8291 6.94085C25.8291 6.94085 29.5716 13.4428 30.9513 15.8541C31.2643 16.4051 31.8506 16.7401 32.4809 16.7401H45.9874C46.6883 16.7401 47.1599 16.0348 46.9043 15.378C43.2764 5.95343 33.8739 -0.605849 23.0299 0.0421445C11.917 0.70777 2.59387 9.17136 0.808581 20.1608C0.385401 22.7704 0.41185 25.3095 0.790948 27.7295C0.9276 28.5847 1.65935 29.2151 2.52334 29.2151H18.9833H21.5179H30.008C31.1849 29.2151 31.9211 30.489 31.3348 31.5117L25.8247 41.0597C25.234 42.0824 23.7617 42.0824 23.171 41.0597C23.171 41.0597 19.4241 34.5577 18.0487 32.1465C17.7358 31.5955 17.1495 31.2604 16.5191 31.2604H3.01264C2.31175 31.2604 1.84008 31.9657 2.09575 32.6226C5.72804 42.0603 15.1438 48.624 26.0054 47.9584C37.1138 47.2795 46.4238 38.8071 48.1959 27.8177C48.6146 25.2125 48.5882 22.6866 48.2091 20.2754V20.271Z" fill="#061D33"/>
</g>
<defs>
<clipPath id="clip0_1223_3918">
<rect width="48" height="48" fill="white" transform="translate(0.5)"/>
</clipPath>
</defs>
</svg>
