<svg width="200" height="46" viewBox="0 0 200 46" fill="none" xmlns="http://www.w3.org/2000/svg">
<path fill-rule="evenodd" clip-rule="evenodd" d="M16.1678 17.2118L17.5201 9.54164H20.7325C23.1292 9.54164 26.6965 9.97352 26.1299 13.1848C25.605 16.1578 23.5023 17.2129 20.865 17.2129L16.1678 17.2118ZM12.8528 36.0051L14.7471 25.2669H20.4524C30.375 25.2669 35.6142 20.5675 36.9238 13.1367C38.1756 6.04168 34.185 1.48767 24.2613 1.48767H7.62634L1.53937 36.0051H12.8528ZM56.8267 9.01461C61.8383 8.87029 62.8763 13.8562 62.0478 18.5545C61.044 24.2577 58.3811 28.4782 53.4914 28.4782C48.0736 28.4782 47.7037 22.9642 48.4809 18.5545C49.2506 14.1908 51.6976 9.01461 56.8267 9.01461ZM58.411 0.576874C47.6717 0.576874 39.0939 7.62382 37.1836 18.4583C35.1129 30.2046 41.1688 36.9148 52.0022 36.9148C62.2146 36.9148 71.2905 30.2987 73.3612 18.5545C74.9679 9.44543 70.7314 0.576874 58.411 0.576874ZM96.6091 11.5065C96.6283 10.3081 96.1323 9.58868 95.3936 9.15786C94.6538 8.72598 93.6821 8.53356 92.5789 8.53356C90.087 8.53356 88.8576 9.253 88.6363 10.4995C87.7234 15.6767 108.136 12.4643 105.922 25.0253C104.509 33.03 97.1617 36.9138 87.6699 36.9138C78.5609 36.9138 73.5547 31.5933 74.4142 25.3588H85.2486C85.2689 26.6074 85.7789 27.5182 86.6362 28.0923C87.4454 28.6685 88.5936 28.955 89.6957 28.955C92.5243 28.955 94.5555 28.0442 94.842 26.416C95.7635 21.1896 75.2822 24.7858 77.6073 11.6016C78.8997 4.26604 85.8793 0.575806 94.5084 0.575806C104.095 0.575806 107.596 5.46441 107.346 11.5054L96.6091 11.5065ZM111.942 1.48767H143.582L141.982 10.5487H131.821L127.331 36.0051H116.017L120.507 10.5487H110.343L111.942 1.48767Z" fill="#061D33"/>
<path fill-rule="evenodd" clip-rule="evenodd" d="M179.532 45.4242L166.184 17.9922L180.686 1.48767H167.984L162.067 9.5256L158.156 1.48767H145.451L153.331 18.3332L138.166 36.0051H150.869L157.479 27.1986L164.427 42.0536H0.583683L0 45.4242H179.532Z" fill="#F9DC30"/>
<path fill-rule="evenodd" clip-rule="evenodd" d="M186.817 1.96234H192.285V2.7609H190.011V8.82863H189.089V2.7609H186.817V1.96234ZM193.433 1.96234H194.74L196.741 7.7842L198.703 1.96234H200V8.82863H199.126V3.2922L197.207 8.82863H196.286L194.357 3.2922V8.82863H193.434L193.433 1.96234Z" fill="#061D33"/>
</svg>
