<svg width="48" height="48" viewBox="0 0 48 48" fill="none" xmlns="http://www.w3.org/2000/svg">
<g clip-path="url(#clip0_1223_3934)">
<path d="M47.7091 20.271C47.5724 19.4158 46.8407 18.7855 45.9767 18.7855H29.5168H26.1842H18.4921C17.3151 18.7855 16.5789 17.5115 17.1652 16.4888L22.6754 6.94085C23.2661 5.91817 24.7384 5.91817 25.3291 6.94085C25.3291 6.94085 29.0716 13.4428 30.4513 15.8541C30.7643 16.4051 31.3506 16.7401 31.9809 16.7401H45.4874C46.1883 16.7401 46.6599 16.0348 46.4043 15.378C42.7764 5.95343 33.3739 -0.605849 22.5299 0.0421445C11.417 0.70777 2.09387 9.17136 0.308581 20.1608C-0.114599 22.7704 -0.0881499 25.3095 0.290948 27.7295C0.4276 28.5847 1.15935 29.2151 2.02334 29.2151H18.4833H21.0179H29.508C30.6849 29.2151 31.4211 30.489 30.8348 31.5117L25.3247 41.0597C24.734 42.0824 23.2617 42.0824 22.671 41.0597C22.671 41.0597 18.9241 34.5577 17.5487 32.1465C17.2358 31.5955 16.6495 31.2604 16.0191 31.2604H2.51264C1.81175 31.2604 1.34008 31.9657 1.59575 32.6226C5.22804 42.0603 14.6438 48.624 25.5054 47.9584C36.6138 47.2795 45.9238 38.8071 47.6959 27.8177C48.1146 25.2125 48.0882 22.6866 47.7091 20.2754V20.271Z" fill="white"/>
</g>
<defs>
<clipPath id="clip0_1223_3934">
<rect width="48" height="48" fill="white"/>
</clipPath>
</defs>
</svg>
